<svg width="200" height="48" viewBox="0 0 200 48" fill="none" xmlns="http://www.w3.org/2000/svg">
    <g clip-path="url(#clip0_1554_6568)">
        <path
            d="M12 15C11.54 15 11.07 15.04 10.6 15.14C7.84001 15.67 5.64001 17.9 5.12001 20.66C4.64001 23.27 5.60001 25.67 7.34001 27.22C7.77001 27.6 8.00001 28.13 8.00001 28.69V31C8.00001 32.1 8.90001 33 10 33H10.28C10.63 33.6 11.26 34 12 34C12.74 34 13.38 33.6 13.72 33H14C15.1 33 16 32.1 16 31V28.69C16 28.14 16.22 27.6 16.64 27.23C18.09 25.95 19 24.08 19 22C19 18.13 15.87 15 12 15ZM14 31H10V30H14V31ZM14 29H10V28H14V29ZM12.5 23.41V26H11.5V23.41L9.67001 21.59L10.38 20.88L12 22.5L13.62 20.88L14.33 21.59L12.5 23.41Z"
            fill="#6B0EAD" />
    </g>
    <path
        d="M43.7926 16.4545V31H41.598V16.4545H43.7926ZM50.902 31.2131C50.0213 31.2131 49.2353 30.9882 48.544 30.5384C47.8575 30.0838 47.3177 29.4375 46.9247 28.5994C46.5365 27.7566 46.3423 26.7457 46.3423 25.5668C46.3423 24.3878 46.5388 23.3793 46.9318 22.5412C47.3295 21.7031 47.8741 21.0616 48.5653 20.6165C49.2566 20.1714 50.0402 19.9489 50.9162 19.9489C51.5933 19.9489 52.1378 20.0625 52.5497 20.2898C52.9664 20.5123 53.2884 20.7727 53.5156 21.071C53.7476 21.3693 53.9276 21.6321 54.0554 21.8594H54.1832V16.4545H56.3068V31H54.233V29.3026H54.0554C53.9276 29.5346 53.7429 29.7997 53.5014 30.098C53.2647 30.3963 52.938 30.6567 52.5213 30.8793C52.1046 31.1018 51.5649 31.2131 50.902 31.2131ZM51.3707 29.402C51.9815 29.402 52.4976 29.241 52.919 28.919C53.3452 28.5923 53.6671 28.1402 53.8849 27.5625C54.1075 26.9848 54.2188 26.3125 54.2188 25.5455C54.2188 24.7879 54.1098 24.125 53.892 23.5568C53.6742 22.9886 53.3546 22.5459 52.9332 22.2287C52.5118 21.9115 51.991 21.7528 51.3707 21.7528C50.7315 21.7528 50.1989 21.9186 49.7727 22.25C49.3466 22.5814 49.0246 23.0336 48.8068 23.6065C48.5938 24.1795 48.4872 24.8258 48.4872 25.5455C48.4872 26.2746 48.5961 26.9304 48.8139 27.5128C49.0317 28.0952 49.3537 28.5568 49.7798 28.8977C50.2107 29.2339 50.741 29.402 51.3707 29.402ZM64.0394 31.2202C62.9646 31.2202 62.0389 30.9905 61.2624 30.5312C60.4906 30.0672 59.8941 29.4162 59.4727 28.5781C59.056 27.7353 58.8477 26.7481 58.8477 25.6165C58.8477 24.4991 59.056 23.5142 59.4727 22.6619C59.8941 21.8097 60.4812 21.1444 61.234 20.6662C61.9916 20.188 62.877 19.9489 63.8903 19.9489C64.5058 19.9489 65.1024 20.0507 65.68 20.2543C66.2577 20.4579 66.7762 20.7775 67.2354 21.2131C67.6947 21.6487 68.0569 22.2145 68.3221 22.9105C68.5872 23.6018 68.7198 24.4422 68.7198 25.4318V26.1847H60.0479V24.5938H66.6388C66.6388 24.035 66.5252 23.5402 66.2979 23.1094C66.0707 22.6738 65.7511 22.3305 65.3391 22.0795C64.9319 21.8286 64.4537 21.7031 63.9045 21.7031C63.3079 21.7031 62.7871 21.8499 62.342 22.1435C61.9016 22.4323 61.5607 22.8111 61.3192 23.2798C61.0825 23.7438 60.9641 24.2481 60.9641 24.7926V26.0355C60.9641 26.7647 61.092 27.3849 61.3477 27.8963C61.6081 28.4077 61.9703 28.7983 62.4343 29.0682C62.8983 29.3333 63.4405 29.4659 64.0607 29.4659C64.4632 29.4659 64.8301 29.4091 65.1616 29.2955C65.493 29.1771 65.7795 29.0019 66.021 28.7699C66.2624 28.5379 66.4471 28.2514 66.5749 27.9105L68.5849 28.2727C68.4239 28.8646 68.1351 29.383 67.7184 29.8281C67.3065 30.2685 66.788 30.6117 66.163 30.858C65.5427 31.0994 64.8349 31.2202 64.0394 31.2202ZM74.2507 31.2415C73.5594 31.2415 72.9344 31.1136 72.3757 30.858C71.817 30.5975 71.3743 30.2211 71.0476 29.7287C70.7256 29.2363 70.5646 28.6326 70.5646 27.9176C70.5646 27.3021 70.683 26.7955 70.9197 26.3977C71.1565 26 71.4761 25.6851 71.8786 25.4531C72.281 25.2211 72.7308 25.0459 73.228 24.9276C73.7251 24.8092 74.2318 24.7192 74.7479 24.6577C75.4013 24.5819 75.9316 24.5204 76.3388 24.473C76.746 24.4209 77.0419 24.3381 77.2266 24.2244C77.4112 24.1108 77.5036 23.9261 77.5036 23.6705V23.6207C77.5036 23.0005 77.3284 22.5199 76.978 22.179C76.6323 21.8381 76.1162 21.6676 75.4297 21.6676C74.7147 21.6676 74.1513 21.8262 73.7393 22.1435C73.3321 22.456 73.0504 22.804 72.8942 23.1875L70.8984 22.733C71.1352 22.0701 71.4808 21.535 71.9354 21.1278C72.3946 20.7159 72.9226 20.4176 73.5192 20.233C74.1158 20.0436 74.7431 19.9489 75.4013 19.9489C75.8369 19.9489 76.2985 20.0009 76.7862 20.1051C77.2786 20.2045 77.7379 20.3892 78.1641 20.6591C78.5949 20.929 78.9477 21.3149 79.2223 21.8168C79.4969 22.3139 79.6342 22.9602 79.6342 23.7557V31H77.5604V29.5085H77.4751C77.3378 29.7831 77.1319 30.053 76.8572 30.3182C76.5826 30.5833 76.2299 30.8035 75.799 30.9787C75.3681 31.1539 74.852 31.2415 74.2507 31.2415ZM74.7124 29.5369C75.2995 29.5369 75.8014 29.4209 76.218 29.1889C76.6394 28.9569 76.959 28.6539 77.1768 28.2798C77.3994 27.901 77.5107 27.4962 77.5107 27.0653V25.6591C77.4349 25.7348 77.2881 25.8059 77.0703 25.8722C76.8572 25.9337 76.6134 25.9882 76.3388 26.0355C76.0642 26.0781 75.7966 26.1184 75.5362 26.1562C75.2758 26.1894 75.058 26.2178 74.8828 26.2415C74.4709 26.2936 74.0945 26.3812 73.7536 26.5043C73.4174 26.6274 73.1475 26.8049 72.9439 27.0369C72.745 27.2642 72.6456 27.5672 72.6456 27.946C72.6456 28.4716 72.8397 28.8693 73.228 29.1392C73.6162 29.4044 74.111 29.5369 74.7124 29.5369ZM87.9261 31V16.4545H90.1207V29.1108H96.7116V31H87.9261ZM102.219 31.2415C101.528 31.2415 100.903 31.1136 100.344 30.858C99.7857 30.5975 99.343 30.2211 99.0163 29.7287C98.6944 29.2363 98.5334 28.6326 98.5334 27.9176C98.5334 27.3021 98.6518 26.7955 98.8885 26.3977C99.1252 26 99.4448 25.6851 99.8473 25.4531C100.25 25.2211 100.7 25.0459 101.197 24.9276C101.694 24.8092 102.201 24.7192 102.717 24.6577C103.37 24.5819 103.9 24.5204 104.308 24.473C104.715 24.4209 105.011 24.3381 105.195 24.2244C105.38 24.1108 105.472 23.9261 105.472 23.6705V23.6207C105.472 23.0005 105.297 22.5199 104.947 22.179C104.601 21.8381 104.085 21.6676 103.398 21.6676C102.683 21.6676 102.12 21.8262 101.708 22.1435C101.301 22.456 101.019 22.804 100.863 23.1875L98.8672 22.733C99.1039 22.0701 99.4496 21.535 99.9041 21.1278C100.363 20.7159 100.891 20.4176 101.488 20.233C102.085 20.0436 102.712 19.9489 103.37 19.9489C103.806 19.9489 104.267 20.0009 104.755 20.1051C105.247 20.2045 105.707 20.3892 106.133 20.6591C106.564 20.929 106.916 21.3149 107.191 21.8168C107.466 22.3139 107.603 22.9602 107.603 23.7557V31H105.529V29.5085H105.444C105.307 29.7831 105.101 30.053 104.826 30.3182C104.551 30.5833 104.199 30.8035 103.768 30.9787C103.337 31.1539 102.821 31.2415 102.219 31.2415ZM102.681 29.5369C103.268 29.5369 103.77 29.4209 104.187 29.1889C104.608 28.9569 104.928 28.6539 105.146 28.2798C105.368 27.901 105.479 27.4962 105.479 27.0653V25.6591C105.404 25.7348 105.257 25.8059 105.039 25.8722C104.826 25.9337 104.582 25.9882 104.308 26.0355C104.033 26.0781 103.765 26.1184 103.505 26.1562C103.245 26.1894 103.027 26.2178 102.852 26.2415C102.44 26.2936 102.063 26.3812 101.722 26.5043C101.386 26.6274 101.116 26.8049 100.913 27.0369C100.714 27.2642 100.614 27.5672 100.614 27.946C100.614 28.4716 100.808 28.8693 101.197 29.1392C101.585 29.4044 102.08 29.5369 102.681 29.5369ZM110.602 31V16.4545H112.725V21.8594H112.853C112.976 21.6321 113.154 21.3693 113.386 21.071C113.618 20.7727 113.94 20.5123 114.352 20.2898C114.764 20.0625 115.308 19.9489 115.985 19.9489C116.866 19.9489 117.652 20.1714 118.343 20.6165C119.035 21.0616 119.577 21.7031 119.97 22.5412C120.368 23.3793 120.566 24.3878 120.566 25.5668C120.566 26.7457 120.37 27.7566 119.977 28.5994C119.584 29.4375 119.044 30.0838 118.358 30.5384C117.671 30.9882 116.887 31.2131 116.007 31.2131C115.344 31.2131 114.802 31.1018 114.38 30.8793C113.964 30.6567 113.637 30.3963 113.4 30.098C113.163 29.7997 112.981 29.5346 112.853 29.3026H112.676V31H110.602ZM112.683 25.5455C112.683 26.3125 112.794 26.9848 113.017 27.5625C113.239 28.1402 113.561 28.5923 113.983 28.919C114.404 29.241 114.92 29.402 115.531 29.402C116.165 29.402 116.696 29.2339 117.122 28.8977C117.548 28.5568 117.87 28.0952 118.088 27.5128C118.31 26.9304 118.422 26.2746 118.422 25.5455C118.422 24.8258 118.313 24.1795 118.095 23.6065C117.882 23.0336 117.56 22.5814 117.129 22.25C116.703 21.9186 116.17 21.7528 115.531 21.7528C114.915 21.7528 114.395 21.9115 113.968 22.2287C113.547 22.5459 113.227 22.9886 113.01 23.5568C112.792 24.125 112.683 24.7879 112.683 25.5455Z"
        fill="url(#paint0_linear_1554_6568)" />

</svg>